# xmcd
#
# Track frame offsets:
#	150
#	8205
#	18292
#	35367
#	50017
#	65322
#	79647
#	114182
#	123550
#	127072
#	142455
#	154637
#	166282
#	182377
#	201027
#	216980
#
# Disc length: 3226
#
# Revision: 7
# Processed by: cddbd v1.5.1PL0 Copyright (c) Steve Scherf et al.
# Submitted via: ExactAudioCopy v0.90a11
# Normalized: r6:DSETVAR2
#
DISCID=da0c9810
DTITLE=Various Artist - The Tarantino Connection
DYEAR=1996
DGENRE=
TTITLE0=Quentin Tarantino - Interview
TTITLE1=Dick Dale and His Del-Tones - Misirlou (Pulp fiction)
TTITLE2=The Blasters - Dark night (From dusk till dawn)
TTITLE3=George Baker Selection - Little green bag  (Reservoir dogs)
TTITLE4=Charlie Sexton - Graceland  (True romance)
TTITLE5=Urge Overkill - Girl  (Pulp fiction)
TTITLE6=Leonard Cohen - Waiting for the miracle (Natural born killers)
TTITLE7=Burl Ives - A little bitty tear (True romance)
TTITLE8=Quentin Tarantino - Interview
TTITLE9=Stealers Wheel - Stuck in the middle with you (Reservoir dogs)
TTITLE10=Chuck Berry - You never can tell (Pulp fiction)
TTITLE11=Robert Palmer - Love is (True romance)
TTITLE12=Cowboy Junkies - Sweet Jane (Natural born killers)
TTITLE13=Dire Straits - Six blade knife (Desperado)
TTITLE14=The Mavericks - Foolish heart (From dusk till dawn)
TTITLE15=Comustible Edison - Vertigogo (Four rooms)
EXTD=ciao\n YEAR: 1996
EXTT0=
EXTT1=Dick Dale and his Del-TonesDick Dale and his Del-Tones
EXTT2=The BlastersThe Blasters
EXTT3=George Baker SelectionGeorge Baker Selection
EXTT4=Charlie SextonCharlie Sexton
EXTT5=Urge OverkillUrge Overkill
EXTT6=Leonard CohenLeonard Cohen
EXTT7=Burl IvesBurl Ives
EXTT8=
EXTT9=Stealers WheelStealers Wheel
EXTT10=Chuck BerryChuck Berry
EXTT11=Robert PalmerRobert Palmer
EXTT12=Cowboy JunkiesCowboy Junkies
EXTT13=Dire StraitsDire Straits
EXTT14=The MavericksThe Mavericks
EXTT15=Combustible EdisonCombustible Edison
PLAYORDER=
